<mxfile host="app.diagrams.net" modified="2024-04-26T07:43:46.424Z" agent="Mozilla/5.0 (Windows NT 10.0; Win64; x64) AppleWebKit/537.36 (KHTML, like Gecko) Chrome/124.0.0.0 Safari/537.36" etag="7QWRCKbY4_5xghCkVwDC" version="24.2.7" type="device">
  <diagram name="Page-1" id="HU86oaUhFWHIJr68qZ-O">
    <mxGraphModel dx="1354" dy="592" grid="1" gridSize="10" guides="1" tooltips="1" connect="1" arrows="1" fold="1" page="1" pageScale="1" pageWidth="850" pageHeight="1100" math="0" shadow="0">
      <root>
        <mxCell id="0" />
        <mxCell id="1" parent="0" />
        <mxCell id="jiS3PV1qZydFPBGfXtmH-1" value="" style="rounded=1;whiteSpace=wrap;html=1;" vertex="1" parent="1">
          <mxGeometry x="80" y="80" width="360" height="440" as="geometry" />
        </mxCell>
        <mxCell id="jiS3PV1qZydFPBGfXtmH-2" value="" style="rounded=1;whiteSpace=wrap;html=1;" vertex="1" parent="1">
          <mxGeometry x="480" y="80" width="360" height="440" as="geometry" />
        </mxCell>
      </root>
    </mxGraphModel>
  </diagram>
</mxfile>
